<svg width="200" height="200" viewBox="0 0 200 200" fill="none" xmlns="http://www.w3.org/2000/svg">
<path d="M122.581 167.739H6.45276V25.8062H129.033V9.67768C129.03 7.11196 128.009 4.65221 126.195 2.83796C124.381 1.02372 121.921 0.00311233 119.355 0H9.67817C7.11244 0.00311233 4.6527 1.02372 2.83845 2.83796C1.02421 4.65221 0.00360061 7.11196 0.000488281 9.67768V190.322C0.00360061 192.888 1.02421 195.348 2.83845 197.162C4.6527 198.976 7.11244 199.997 9.67817 200H119.355C121.921 199.997 124.381 198.976 126.195 197.162C128.009 195.348 129.03 192.888 129.033 190.322V167.739H122.581ZM9.67817 6.45228H119.355C120.21 6.4546 121.029 6.79517 121.633 7.39955C122.238 8.00392 122.578 8.82297 122.581 9.67768V19.3554H6.45276V9.67768C6.45509 8.82297 6.79566 8.00392 7.40004 7.39955C8.00441 6.79517 8.82345 6.4546 9.67817 6.45228ZM119.355 193.548H9.67817C8.82345 193.545 8.00441 193.205 7.40004 192.6C6.79566 191.996 6.45509 191.177 6.45276 190.322V174.192H122.581V190.321C122.579 191.176 122.238 191.995 121.634 192.6C121.029 193.205 120.21 193.545 119.355 193.548Z" fill="#1D2758"/>
<path d="M77.419 180.645H51.6128V187.097H77.419V180.645Z" fill="#1D2758"/>
<path d="M187.098 32.2584H106.452V38.7107H187.098V32.2584Z" fill="#1D2758"/>
<path d="M200.001 32.2584H193.548V38.7107H200.001V32.2584Z" fill="#1D2758"/>
<path d="M180.645 90.3215H106.452V96.7738H180.645V90.3215Z" fill="#1D2758"/>
<path d="M193.55 90.3215H187.098V96.7738H193.55V90.3215Z" fill="#1D2758"/>
<path d="M180.645 51.6123H119.355V58.0646H180.645V51.6123Z" fill="#1D2758"/>
<path d="M193.55 51.6123H187.098V58.0646H193.55V51.6123Z" fill="#1D2758"/>
<path d="M187.096 70.9677H125.806V77.4199H187.096V70.9677Z" fill="#1D2758"/>
<path d="M200.001 70.9677H193.548V77.4199H200.001V70.9677Z" fill="#1D2758"/>
<path d="M112.903 64.5169C112.903 58.1366 111.012 51.8996 107.467 46.5945C103.923 41.2894 98.8847 37.1545 92.9901 34.7128C87.0956 32.271 80.6094 31.6321 74.3517 32.8767C68.0941 34.1214 62.346 37.1937 57.8345 41.7053C53.323 46.2168 50.2507 51.9648 49.006 58.2225C47.7614 64.4801 48.4003 70.9663 50.8421 76.8609C53.2838 82.7554 57.4187 87.7935 62.7238 91.3379C68.0289 94.8824 74.2659 96.7741 80.6462 96.7739C89.1981 96.7637 97.3969 93.362 103.444 87.3148C109.491 81.2677 112.893 73.0689 112.903 64.5169ZM54.8341 64.5169C54.835 59.4133 56.3491 54.4247 59.185 50.1816C62.0209 45.9385 66.0512 42.6315 70.7664 40.6788C75.4816 38.7261 80.6699 38.2153 85.6754 39.2111C90.6808 40.2069 95.2786 42.6644 98.8875 46.2731C102.496 49.8817 104.954 54.4794 105.95 59.4848C106.946 64.4902 106.436 69.6785 104.483 74.3938C102.531 79.1091 99.2242 83.1397 94.9812 85.9758C90.7383 88.8119 85.7497 90.3263 80.6462 90.3275C73.8037 90.3193 67.2439 87.5972 62.4059 82.7584C57.568 77.9196 54.847 71.3594 54.84 64.5169H54.8341Z" fill="#FF8200"/>
<path d="M193.548 129.394C193.548 124.413 192.071 119.544 189.304 115.403C186.537 111.262 182.604 108.034 178.003 106.128C173.401 104.222 168.338 103.723 163.453 104.695C158.568 105.667 154.08 108.065 150.559 111.587C147.037 115.109 144.638 119.596 143.667 124.481C142.695 129.366 143.194 134.429 145.1 139.031C147.006 143.633 150.233 147.566 154.375 150.333C158.516 153.1 163.385 154.577 168.365 154.577C175.042 154.569 181.443 151.914 186.164 147.193C190.885 142.472 193.541 136.071 193.548 129.394ZM148.221 129.394C148.221 125.411 149.402 121.517 151.615 118.205C153.828 114.892 156.973 112.311 160.654 110.787C164.334 109.262 168.383 108.863 172.29 109.641C176.197 110.418 179.786 112.336 182.602 115.153C185.419 117.969 187.337 121.558 188.114 125.465C188.892 129.372 188.493 133.421 186.968 137.101C185.444 140.781 182.863 143.927 179.55 146.14C176.238 148.353 172.344 149.534 168.361 149.534C163.022 149.527 157.904 147.402 154.128 143.627C150.353 139.851 148.228 134.733 148.221 129.394Z" fill="#FF8200"/>
<path d="M138.711 154.839H70.9683V161.291H138.711V154.839Z" fill="#1D2758"/>
<path d="M64.5177 154.839H58.0654V161.291H64.5177V154.839Z" fill="#1D2758"/>
<path d="M138.709 135.483H77.4189V141.935H138.709V135.483Z" fill="#1D2758"/>
<path d="M129.033 116.129H70.9683V122.582H129.033V116.129Z" fill="#1D2758"/>
<path d="M64.5177 116.129H58.0654V122.582H64.5177V116.129Z" fill="#1D2758"/>
<path d="M70.9684 135.483H64.5161V141.935H70.9684V135.483Z" fill="#1D2758"/>
<path d="M91.2838 64.0994L88.1657 68.4715H78.5159V71.3823H86.0855L84.6154 73.4478L86.9823 75.1399L94.8664 64.1038L86.9823 53.0677L84.6154 54.7598L86.0855 56.8253H72.6929V59.7361H88.1657L91.2838 64.0994Z" fill="#FF8200"/>
<path d="M163.057 124.14H177.075V121.229H165.137L166.607 119.163L164.241 117.471L156.356 128.507L164.241 139.543L166.607 137.851L165.137 135.786H177.075V132.879H163.057L159.932 128.507L163.057 124.14Z" fill="#FF8200"/>
</svg>
