<svg width="101" height="100" viewBox="0 0 101 100" fill="none" xmlns="http://www.w3.org/2000/svg">
<g opacity="0.07">
<path d="M50.5 100C78.1142 100 100.5 77.6142 100.5 50C100.5 22.3858 78.1142 0 50.5 0C22.8858 0 0.5 22.3858 0.5 50C0.5 77.6142 22.8858 100 50.5 100Z" fill="#FF9629"/>
<path d="M50.5002 99.4791C77.8268 99.4791 99.9793 77.3266 99.9793 50C99.9793 22.6734 77.8268 0.520813 50.5002 0.520813C23.1736 0.520813 1.021 22.6734 1.021 50C1.021 77.3266 23.1736 99.4791 50.5002 99.4791Z" stroke="#707070" stroke-width="0.416667"/>
</g>
<path d="M79.4417 59.6125V30.1583H73.9208V26.4771C73.9208 25.2565 73.436 24.086 72.5729 23.2229C71.7099 22.3599 70.5393 21.875 69.3187 21.875C68.0982 21.875 66.9276 22.3599 66.0646 23.2229C65.2015 24.086 64.7167 25.2565 64.7167 26.4771V30.1583H22.375V59.6125H24.2625C24.4901 62.1281 25.6502 64.4676 27.515 66.1713C29.3797 67.875 31.8143 68.8197 34.3401 68.8197C36.866 68.8197 39.3005 67.875 41.1652 66.1713C43.03 64.4676 44.1902 62.1281 44.4177 59.6125H49.475C47.37 60.5703 45.6563 62.2198 44.6189 64.2868C43.5816 66.3537 43.2831 68.7135 43.7731 70.9737C44.2631 73.2339 45.5121 75.2582 47.3124 76.7099C49.1126 78.1617 51.3556 78.9534 53.6682 78.9534C55.9809 78.9534 58.2239 78.1617 60.0241 76.7099C61.8243 75.2582 63.0733 73.2339 63.5633 70.9737C64.0534 68.7135 63.7549 66.3537 62.7175 64.2868C61.6802 62.2198 59.9665 60.5703 57.8615 59.6125H64.7135V62.2823L63.7135 67.2823L69.3156 72.8833L74.9177 67.2823L73.9177 62.2823V59.6125H79.4417ZM61.9583 68.8167C61.9583 70.455 61.4725 72.0565 60.5623 73.4186C59.6522 74.7808 58.3585 75.8425 56.8449 76.4695C55.3313 77.0964 53.6658 77.2605 52.059 76.9408C50.4522 76.6212 48.9762 75.8323 47.8178 74.6739C46.6594 73.5154 45.8704 72.0395 45.5508 70.4327C45.2312 68.8259 45.3953 67.1604 46.0222 65.6468C46.6491 64.1332 47.7108 62.8395 49.073 61.9293C50.4352 61.0191 52.0367 60.5333 53.675 60.5333C55.8711 60.5358 57.9766 61.4093 59.5295 62.9622C61.0823 64.5151 61.9558 66.6205 61.9583 68.8167ZM77.6 32V57.7719H73.9187V53.1698H75.7594V51.3281H73.9187V47.6469H75.7594V45.8062H73.9187V42.124H75.7594V40.2833H73.9187V36.6021H75.7594V34.7615H73.9187V32H77.6ZM70.2375 61.4583V57.7719H68.3958V61.4583H66.5417L66.5573 30.1635H72.0781V61.4583H70.2375ZM69.3167 23.7156C70.0488 23.7165 70.7507 24.0077 71.2684 24.5254C71.7861 25.043 72.0773 25.745 72.0781 26.4771V28.3177H66.5573V26.4771C66.5581 25.7453 66.849 25.0437 67.3663 24.5261C67.8835 24.0085 68.5849 23.717 69.3167 23.7156ZM34.3406 66.9792C32.3041 66.9764 30.3398 66.2243 28.8222 64.8663C27.3045 63.5083 26.3396 61.6393 26.1115 59.6156H35.2615C35.3849 59.6115 35.508 59.6322 35.6232 59.6766C35.7385 59.721 35.8437 59.7881 35.9325 59.8739C36.0213 59.9598 36.0919 60.0627 36.1402 60.1764C36.1884 60.2901 36.2133 60.4124 36.2133 60.5359C36.2133 60.6595 36.1884 60.7817 36.1402 60.8955C36.0919 61.0092 36.0213 61.1121 35.9325 61.1979C35.8437 61.2838 35.7385 61.3509 35.6232 61.3953C35.508 61.4397 35.3849 61.4604 35.2615 61.4562H33.4167C33.1724 61.4562 32.9382 61.3592 32.7655 61.1865C32.5928 61.0139 32.4958 60.7796 32.4958 60.5354H30.6583C30.66 61.2665 30.9511 61.9671 31.4681 62.484C31.985 63.001 32.6856 63.2921 33.4167 63.2938V65.1354H35.2573V63.2938C35.9894 63.2929 36.6913 63.0017 37.209 62.484C37.7267 61.9663 38.0179 61.2644 38.0187 60.5323C38.0156 60.2179 37.9582 59.9063 37.849 59.6115H42.5656C42.3385 61.6352 41.3746 63.5046 39.8577 64.8634C38.3409 66.2221 36.3771 66.9752 34.3406 66.9792ZM35.2615 57.775H24.2156V32H64.7146V34.7615H49.9875V36.6021H64.7146V40.2833H49.9875V42.124H64.7146V45.8052H49.9875V47.6458H64.7146V51.3271H61.0333V53.1677H64.7146V57.7698L35.2615 57.775ZM70.2375 69.3563V66.0552H68.3958V69.3563L65.7135 66.6729L66.3896 63.2938H72.2583L72.9187 66.6729L70.2375 69.3563Z" fill="#F5821F"/>
<path d="M37.0978 33.8406C34.914 33.8406 32.7792 34.4882 30.9634 35.7015C29.1476 36.9148 27.7324 38.6392 26.8967 40.6568C26.0609 42.6744 25.8423 44.8946 26.2683 47.0364C26.6944 49.1783 27.746 51.1457 29.2902 52.6899C30.8344 54.2341 32.8018 55.2858 34.9437 55.7118C37.0856 56.1379 39.3057 55.9192 41.3233 55.0835C43.3409 54.2478 45.0654 52.8325 46.2786 51.0167C47.4919 49.2009 48.1395 47.0661 48.1395 44.8823C48.1354 41.9551 46.9707 39.1491 44.9009 37.0792C42.8311 35.0094 40.025 33.8448 37.0978 33.8406ZM37.0978 54.0896C35.2777 54.089 33.4986 53.5487 31.9854 52.5371C30.4723 51.5255 29.2931 50.088 28.5968 48.4063C27.9006 46.7246 27.7185 44.8742 28.0738 43.089C28.429 41.3039 29.3056 39.6641 30.5926 38.3771C31.8797 37.0901 33.5194 36.2135 35.3045 35.8583C37.0897 35.503 38.9401 35.685 40.6218 36.3813C42.3035 37.0775 43.741 38.2568 44.7526 39.7699C45.7642 41.2831 46.3045 43.0622 46.3051 44.8823C46.3032 47.3236 45.3325 49.6644 43.6062 51.3907C41.8799 53.117 39.5392 54.0877 37.0978 54.0896Z" fill="#F5821F"/>
<path d="M43.5447 49.4875H30.6582V51.3281H43.5447V49.4875Z" fill="#F5821F"/>
<path d="M30.6582 39.7146V42.124H32.4988V46.7261H30.6582V48.5667H43.5447V46.7261H41.6999V42.124H43.5405V39.7146L37.0978 36.4927L30.6582 39.7146ZM34.3395 42.124H36.179V46.7261H34.3395V42.124ZM39.8603 46.7261H38.0217V42.124H39.8624L39.8603 46.7261ZM33.6342 40.2834L37.0988 38.5511L40.5634 40.2834H33.6342Z" fill="#F5821F"/>
</svg>
