<svg width="100" height="100" viewBox="0 0 100 100" fill="none" xmlns="http://www.w3.org/2000/svg">
<g opacity="0.07">
<path d="M50 100C77.6142 100 100 77.6142 100 50C100 22.3858 77.6142 0 50 0C22.3858 0 0 22.3858 0 50C0 77.6142 22.3858 100 50 100Z" fill="#FF9629"/>
<path d="M50.0002 99.4791C77.3268 99.4791 99.4793 77.3266 99.4793 50C99.4793 22.6734 77.3268 0.520813 50.0002 0.520813C22.6736 0.520813 0.520996 22.6734 0.520996 50C0.520996 77.3266 22.6736 99.4791 50.0002 99.4791Z" fill="#FF9629" stroke="#707070" stroke-width="0.416667"/>
</g>
<path d="M52.249 37.5219H50.4083V32.9167H52.249V26.8552L43.2833 21.875H40.9656L32 26.8552V32.9167H33.8406V37.5188H32V43.0396H52.249V37.5219ZM48.5677 37.5219H46.7271V32.9167H48.5625L48.5677 37.5219ZM41.2042 32.9167V37.5188H39.3635V32.9167H41.2042ZM43.0448 32.9167H44.8854V37.5188H43.0417L43.0448 32.9167ZM41.4427 23.7156H42.8073L49.4333 27.3958H34.8125L41.4427 23.7156ZM50.4083 29.2365V31.0792H33.8458V29.2385L50.4083 29.2365ZM35.6813 32.9167H37.5208V37.5188H35.6813V32.9167ZM50.4083 41.2H33.8458V39.3635H50.4083V41.2Z" fill="#F5821F"/>
<path d="M60.5321 47.6469H62.3727V29.2385H54.0894V31.0792H60.5321V47.6469Z" fill="#F5821F"/>
<path d="M60.5333 77.101H31.0792V69.7375H23.7156V31.0792H30.1583V29.2385H21.875V71.0385L29.7781 78.9417H62.374V71.5781H60.5333V77.101ZM29.2385 75.801L25.0177 71.5781H29.2385V75.801Z" fill="#F5821F"/>
<path d="M55.0106 47.6469C52.644 47.6469 50.3305 48.3486 48.3628 49.6634C46.3951 50.9782 44.8614 52.847 43.9558 55.0334C43.0501 57.2199 42.8131 59.6257 43.2748 61.9469C43.7365 64.268 44.8762 66.4 46.5496 68.0734C48.223 69.7469 50.3551 70.8865 52.6762 71.3482C54.9973 71.8099 57.4032 71.5729 59.5896 70.6673C61.776 69.7616 63.6448 68.228 64.9596 66.2602C66.2744 64.2925 66.9762 61.9791 66.9762 59.6125C66.9726 56.4401 65.7108 53.3987 63.4676 51.1555C61.2244 48.9122 58.1829 47.6504 55.0106 47.6469ZM55.0106 69.7375C53.008 69.7375 51.0505 69.1437 49.3854 68.0311C47.7204 66.9186 46.4226 65.3372 45.6563 63.4871C44.8899 61.637 44.6894 59.6012 45.0801 57.6372C45.4708 55.6731 46.4351 53.869 47.8511 52.453C49.2671 51.037 51.0712 50.0727 53.0353 49.682C54.9993 49.2913 57.0351 49.4919 58.8852 50.2582C60.7353 51.0245 62.3166 52.3223 63.4292 53.9873C64.5417 55.6524 65.1356 57.6099 65.1356 59.6125C65.1325 62.2969 64.0648 64.8704 62.1667 66.7686C60.2685 68.6667 57.6949 69.7344 55.0106 69.7375Z" fill="#F5821F"/>
<path d="M75.9696 52.2489L73.9977 55.0104H67.8956V56.851H72.6821L71.7446 58.1573L73.2414 59.2271L78.2269 52.2479L73.2414 45.2687L71.7446 46.3385L72.6821 47.6448H64.2144V49.4854H73.9977L75.9696 52.2489Z" fill="#F5821F"/>
<path d="M70.0792 64.2146H78.9417V62.374H71.3959L72.3334 61.0677L70.8365 59.9979L65.8511 66.9771L70.8365 73.9563L72.3334 72.8865L71.3959 71.5802H78.9438V69.7365H70.0792L68.1073 66.975L70.0792 64.2146Z" fill="#F5821F"/>
<path d="M36.023 64.2146H42.1241V62.374H37.3397L38.2772 61.0677L36.7803 59.9979L31.7949 66.9771L36.7803 73.9563L38.2772 72.8865L37.3397 71.5802H46.7283V69.7365H36.023L34.0512 66.975L36.023 64.2146Z" fill="#F5821F"/>
<path d="M37.6937 58.1573L39.1906 59.2271L44.176 52.2479L39.1906 45.2687L37.6937 46.3406L38.6312 47.6469H31.0791V49.4875H39.9416L41.9124 52.2489L39.9406 55.0104H31.0791V56.851H38.627L37.6937 58.1573Z" fill="#F5821F"/>
<path d="M57.8225 65.3968L51.4133 56.2385V65.3968H49.7684V61.2677H47.9165V59.7198H49.7684V58.6875H47.9165V57.1396H49.7684V53.6937H51.4642L57.8561 62.8343V53.6937H59.501V57.1396H61.8498V58.6875H59.501V59.7198H61.8498V61.2677H59.501V65.3958L57.8225 65.3968Z" fill="#F5821F" stroke="black" stroke-width="0.416667"/>
</svg>
