<svg width="201" height="200" viewBox="0 0 201 200" fill="none" xmlns="http://www.w3.org/2000/svg">
<path d="M84.3706 48.387C84.3737 45.8214 85.3943 43.3618 87.2084 41.5477C89.0225 39.7335 91.4821 38.713 94.0477 38.7099H110.184V32.2576H94.0477C89.7717 32.2628 85.6722 33.9638 82.6487 36.9876C79.6252 40.0114 77.9245 44.1109 77.9196 48.387H73.929L0.5 85.1028V103.23H6.95098V116.133H13.402V167.746H6.95098V180.65H0.5V200.001H161.79V180.645H155.339V167.741H148.888V116.128H155.339V103.225H161.79V85.1028L88.3612 48.387H84.3706ZM129.531 116.128V167.741H123.08V180.645H116.628V167.741H110.184V116.128H116.635V103.225H123.086V116.128H129.531ZM103.725 116.128V167.741H97.2739V116.128H103.725ZM110.176 174.188V180.639H90.8229V174.188H110.176ZM110.176 109.672H90.8229V103.225H110.184L110.176 109.672ZM90.8229 116.128V167.741H84.3706V180.645H77.9196V167.741H71.4673V116.128H77.9183V103.225H84.3693V116.128H90.8229ZM65.0163 116.128V167.741H58.5601V116.128H65.0163ZM71.4673 174.188V180.639H52.1131V174.188H71.4673ZM71.4673 109.672H52.1131V103.225H71.4673V109.672ZM52.1131 116.128V167.741H45.6608V180.645H39.2098V167.741H32.7575V116.128H39.2085V103.225H45.6608V116.128H52.1131ZM32.7575 109.677H13.4033V103.225H32.7575V109.677ZM19.8542 116.128H26.3052V167.741H19.8542V116.128ZM13.4033 174.188H32.7575V180.639H13.4033V174.188ZM155.338 193.543H6.95098V187.092H155.338V193.543ZM129.531 180.639V174.188H148.886V180.639H129.531ZM142.435 167.736H135.984V116.128H142.435V167.736ZM148.886 109.676H129.531V103.225H148.886V109.676ZM155.337 96.7726H6.95098V89.0882L75.454 54.838H77.9183V77.4184H84.3693V54.838H86.8335L155.337 89.0895V96.7726Z" fill="#1D2758"/>
<path d="M135.984 83.8706H26.3066V90.3216H135.984V83.8706Z" fill="black"/>
<path d="M165.015 0C157.997 0 151.137 2.08108 145.301 5.98007C139.466 9.87907 134.918 15.4209 132.232 21.9047C129.547 28.3884 128.844 35.523 130.213 42.4062C131.582 49.2893 134.962 55.6119 139.924 60.5744C144.887 65.5369 151.209 68.9164 158.092 70.2855C164.976 71.6547 172.11 70.952 178.594 68.2663C185.078 65.5806 190.62 61.0326 194.519 55.1973C198.418 49.3621 200.499 42.5017 200.499 35.4837C200.487 26.0762 196.745 17.0573 190.093 10.4052C183.441 3.75314 174.422 0.0111244 165.015 0ZM165.015 64.5163C159.273 64.5163 153.661 62.8138 148.887 59.6239C144.113 56.434 140.392 51.9002 138.195 46.5956C135.997 41.2911 135.423 35.4541 136.543 29.8228C137.663 24.1915 140.428 19.0189 144.488 14.9589C148.548 10.899 153.72 8.13417 159.351 7.01404C164.983 5.89391 170.82 6.4688 176.124 8.66601C181.429 10.8632 185.963 14.5841 189.153 19.3581C192.342 24.132 194.045 29.7447 194.045 35.4863C194.036 43.1827 190.974 50.5611 185.532 56.0033C180.09 61.4454 172.711 64.507 165.015 64.5163Z" fill="#1D2758"/>
<path d="M123.08 32.2576H116.629V38.7085H123.08V32.2576Z" fill="black"/>
<path d="M181.144 125.807C181.141 128.372 180.121 130.832 178.307 132.646C176.493 134.46 174.033 135.481 171.467 135.484H168.241V141.935H171.467C175.743 141.929 179.842 140.229 182.866 137.205C185.889 134.182 187.59 130.082 187.595 125.807V74.1935H181.144V125.807Z" fill="#1D2758"/>
<path d="M161.789 135.484H155.338V141.935H161.789V135.484Z" fill="#1D2758"/>
<path d="M175.197 53.3799H155.14C154.092 53.3393 153.101 52.8894 152.381 52.1267C151.619 51.4068 151.17 50.417 151.129 49.3695V33.3229C151.17 32.2748 151.62 31.2844 152.383 30.5643C153.103 29.8016 154.093 29.3517 155.141 29.3112V23.295C155.127 21.9741 155.376 20.6635 155.875 19.4403C156.374 18.2171 157.112 17.1058 158.046 16.1717C158.98 15.2375 160.091 14.4993 161.314 14.0003C162.537 13.5013 163.848 13.2516 165.169 13.2658C166.49 13.2514 167.801 13.501 169.024 13.9999C170.247 14.4988 171.359 15.237 172.293 16.1712C173.227 17.1054 173.965 18.2167 174.464 19.44C174.963 20.6633 175.212 21.974 175.198 23.295V26.1757H171.186V23.295C171.147 21.7115 170.5 20.2039 169.38 19.0839C168.26 17.9638 166.752 17.3171 165.169 17.2775C163.585 17.3171 162.078 17.9638 160.958 19.0839C159.838 20.2039 159.191 21.7115 159.151 23.295V29.3125H171.186V29.2495H175.197V29.3125C176.237 29.3831 177.217 29.8283 177.954 30.5656C178.692 31.3029 179.137 32.2824 179.208 33.3229V49.3695C179.137 50.41 178.692 51.3895 177.954 52.1268C177.217 52.8641 176.237 53.3092 175.197 53.3799Z" fill="#FF8200"/>
</svg>
