<svg width="200" height="186" viewBox="0 0 200 186" fill="none" xmlns="http://www.w3.org/2000/svg">
<path d="M175 63.3135C175.411 63.3135 175.818 63.2324 176.197 63.0749C176.577 62.9174 176.922 62.6866 177.212 62.3957C177.502 62.1047 177.732 61.7594 177.889 61.3794C178.045 60.9995 178.126 60.5924 178.125 60.1814V3.93756C178.125 3.10881 177.795 2.314 177.209 1.72798C176.623 1.14196 175.829 0.812744 175 0.812744H24.9998C24.1711 0.812744 23.3763 1.14196 22.7902 1.72798C22.2042 2.314 21.875 3.10881 21.875 3.93756V100.81C21.875 101.639 22.2042 102.433 22.7902 103.019C23.3763 103.605 24.1711 103.935 24.9998 103.935C25.8286 103.935 26.6234 103.605 27.2094 103.019C27.7954 102.433 28.1246 101.639 28.1246 100.81V7.06238H171.875V60.1814C171.874 60.5924 171.954 60.9995 172.111 61.3794C172.267 61.7594 172.497 62.1047 172.788 62.3957C173.078 62.6866 173.423 62.9174 173.802 63.0749C174.182 63.2324 174.589 63.3135 175 63.3135Z" fill="#1D2758"/>
<path d="M165.626 16.4384H93.7505V22.688H165.626V16.4384Z" fill="#1D2758"/>
<path d="M165.624 28.9376H81.2495V35.1873H165.624V28.9376Z" fill="#1D2758"/>
<path d="M165.624 41.4384H81.2495V47.688H165.624V41.4384Z" fill="#1D2758"/>
<path d="M165.624 53.9376H81.2495V60.1873H165.624V53.9376Z" fill="#1D2758"/>
<path d="M87.4991 16.4384H81.2495V22.688H87.4991V16.4384Z" fill="#1D2758"/>
<path d="M131.25 172.688H125V178.938H131.25V172.688Z" fill="#1D2758"/>
<path d="M143.75 172.688H137.5V178.938H143.75V172.688Z" fill="#1D2758"/>
<path d="M156.25 172.688H150V178.938H156.25V172.688Z" fill="#1D2758"/>
<path d="M168.75 172.688H162.5V178.938H168.75V172.688Z" fill="#1D2758"/>
<path d="M181.25 172.688H175V178.938H181.25V172.688Z" fill="#1D2758"/>
<path d="M193.751 172.688H187.501V178.938H193.751V172.688Z" fill="#1D2758"/>
<path d="M131.25 160.187H125V166.437H131.25V160.187Z" fill="#1D2758"/>
<path d="M143.75 160.187H137.5V166.437H143.75V160.187Z" fill="#1D2758"/>
<path d="M156.25 160.187H150V166.437H156.25V160.187Z" fill="#1D2758"/>
<path d="M106.25 153.938H100V160.187H106.25V153.938Z" fill="#1D2758"/>
<path d="M93.7501 153.938H87.5005V160.187H93.7501V153.938Z" fill="#1D2758"/>
<path d="M81.2496 153.938H75V160.187H81.2496V153.938Z" fill="#1D2758"/>
<path d="M115.626 110.187H3.12483C2.29607 110.187 1.50126 110.516 0.915247 111.102C0.329229 111.689 8.38825e-06 112.483 8.38825e-06 113.312V182.062C-0.000943806 182.473 0.0791794 182.881 0.23579 183.26C0.3924 183.64 0.622422 183.986 0.912683 184.277C1.20294 184.568 1.54774 184.798 1.92734 184.956C2.30693 185.113 2.71386 185.194 3.12483 185.194H115.626C116.454 185.194 117.249 184.865 117.835 184.279C118.421 183.693 118.75 182.898 118.75 182.07V113.312C118.75 112.483 118.421 111.689 117.835 111.102C117.249 110.516 116.454 110.187 115.626 110.187ZM112.501 116.437V122.687H6.24965V116.437H112.501ZM112.501 128.938V141.437H6.24965V128.938H112.501ZM6.24965 178.938V147.691H112.501V178.938H6.24965Z" fill="#1D2758"/>
<path d="M196.875 69.5631H84.3743C83.5456 69.5631 82.7508 69.8923 82.1647 70.4783C81.5787 71.0644 81.2495 71.8592 81.2495 72.6879V100.813C81.2495 101.642 81.5787 102.436 82.1647 103.022C82.7508 103.608 83.5456 103.938 84.3743 103.938C85.2031 103.938 85.9979 103.608 86.5839 103.022C87.1699 102.436 87.4991 101.642 87.4991 100.813V75.8127H193.749V138.313H128.125C127.296 138.313 126.501 138.643 125.915 139.229C125.329 139.815 125 140.61 125 141.438C125 142.267 125.329 143.062 125.915 143.648C126.501 144.234 127.296 144.563 128.125 144.563H196.875C197.704 144.563 198.499 144.234 199.085 143.648C199.671 143.062 200 142.267 200 141.438V72.6879C200 71.8592 199.671 71.0644 199.085 70.4783C198.499 69.8923 197.704 69.5631 196.875 69.5631Z" fill="#1D2758"/>
<path d="M66.5306 11.0938L60.8124 16.8438C60.3779 16.5824 59.8815 16.442 59.3745 16.4369H37.4993C37.0889 16.4369 36.6824 16.5178 36.3032 16.6749C35.924 16.8321 35.5794 17.0624 35.2892 17.3527C34.9991 17.643 34.7689 17.9876 34.612 18.3669C34.455 18.7462 34.3743 19.1527 34.3745 19.5632V41.4369C34.3757 42.2649 34.7054 43.0586 35.2913 43.6437C35.8772 44.2288 36.6713 44.5574 37.4993 44.5574H59.3745C60.2033 44.5574 60.9981 44.2282 61.5841 43.6422C62.1701 43.0561 62.4993 42.2613 62.4993 41.4326V23.9681L70.9688 15.5305L66.5306 11.0938ZM56.2497 38.3165H40.6241V22.6924H54.9682L50.0001 27.6605L45.9688 23.5974L41.5306 28.0355L47.7802 34.2765C48.0708 34.5695 48.4164 34.8021 48.7973 34.9608C49.1782 35.1195 49.5867 35.2013 49.9993 35.2013C50.412 35.2013 50.8205 35.1195 51.2014 34.9608C51.5822 34.8021 51.9279 34.5695 52.2184 34.2765L56.2497 30.222V38.3165Z" fill="#FF8200"/>
<path d="M59.3745 53.9375H37.4993C37.0889 53.9375 36.6824 54.0184 36.3032 54.1755C35.924 54.3327 35.5794 54.563 35.2892 54.8533C34.9991 55.1436 34.7689 55.4883 34.612 55.8675C34.455 56.2468 34.3743 56.6533 34.3745 57.0638V78.9375C34.3757 79.7655 34.7054 80.5592 35.2913 81.1443C35.8772 81.7294 36.6713 82.058 37.4993 82.058H59.3745C60.2033 82.058 60.9981 81.7288 61.5841 81.1428C62.1701 80.5568 62.4993 79.7619 62.4993 78.9332V61.4687L70.9688 53.0311L66.5306 48.5944L60.8124 54.3444C60.3779 54.083 59.8815 53.9426 59.3745 53.9375ZM56.2497 75.8127H40.6241V60.193H54.9682L50.0001 65.1611L45.9688 61.098L41.5306 65.5361L47.7802 71.7771C48.0708 72.0701 48.4164 72.3027 48.7973 72.4614C49.1782 72.6202 49.5867 72.7019 49.9993 72.7019C50.412 72.7019 50.8205 72.6202 51.2014 72.4614C51.5822 72.3027 51.9279 72.0701 52.2184 71.7771L56.2497 67.7227V75.8127Z" fill="#FF8200"/>
<path d="M159.037 101.793V95.6708C159.037 92.9633 157.962 90.3668 156.047 88.4523C154.133 86.5378 151.536 85.4623 148.829 85.4623C146.121 85.4623 143.525 86.5378 141.61 88.4523C139.696 90.3668 138.62 92.9633 138.62 95.6708V101.794C137.562 101.868 136.566 102.323 135.817 103.075C135.068 103.826 134.616 104.823 134.545 105.882V122.203C134.618 123.262 135.071 124.259 135.821 125.009C136.572 125.759 137.569 126.213 138.627 126.285H159.044C160.103 126.213 161.1 125.759 161.851 125.009C162.601 124.259 163.054 123.262 163.126 122.203V105.882C163.056 104.821 162.602 103.821 161.85 103.069C161.098 102.317 160.098 101.864 159.037 101.793ZM154.955 101.793H142.709V95.6708C142.697 94.8588 142.846 94.0524 143.148 93.2986C143.45 92.5448 143.899 91.8586 144.469 91.28C145.039 90.7013 145.718 90.2418 146.467 89.9282C147.216 89.6145 148.02 89.453 148.832 89.453C149.644 89.453 150.448 89.6145 151.197 89.9282C151.946 90.2418 152.626 90.7013 153.196 91.28C153.765 91.8586 154.214 92.5448 154.516 93.2986C154.819 94.0524 154.968 94.8588 154.955 95.6708V101.793Z" fill="#FF8200"/>
</svg>
