<svg width="100" height="100" viewBox="0 0 100 100" fill="none" xmlns="http://www.w3.org/2000/svg">
<g opacity="0.07">
<path d="M50 100C77.6142 100 100 77.6142 100 50C100 22.3858 77.6142 0 50 0C22.3858 0 0 22.3858 0 50C0 77.6142 22.3858 100 50 100Z" fill="#FF9629"/>
<path d="M49.9997 99.4791C77.3263 99.4791 99.4788 77.3265 99.4788 49.9999C99.4788 22.6733 77.3263 0.520752 49.9997 0.520752C22.6731 0.520752 0.520508 22.6733 0.520508 49.9999C0.520508 77.3265 22.6731 99.4791 49.9997 99.4791Z" stroke="#707070" stroke-width="0.416667"/>
</g>
<path d="M45.8062 35.6812C45.8071 34.9491 46.0983 34.2471 46.616 33.7295C47.1337 33.2118 47.8356 32.9206 48.5677 32.9197H53.1698V31.0791H48.5677C47.3476 31.0805 46.1778 31.5658 45.3151 32.4285C44.4523 33.2913 43.967 34.4611 43.9656 35.6812H42.8271L21.875 46.1572V51.3281H23.7156V55.0093H25.5562V69.7374H23.7156V73.4187H21.875V78.9395H67.8958V73.4187H66.0552V69.7374H64.2146V55.0103H66.0552V51.3281H67.8958V46.1572L46.9437 35.6812H45.8062ZM58.6917 55.0103V69.7374H56.851V73.4187H55.0104V69.7374H53.1698V55.0103H55.0104V51.3281H56.851V55.0093L58.6917 55.0103ZM51.3281 55.0103V69.7374H49.4875V55.0103H51.3281ZM53.1687 71.5728V73.4135H47.6479V71.5781L53.1687 71.5728ZM53.1687 53.1645H47.6479V51.3281H53.1687V53.1645ZM47.6479 55.0051V69.7374H45.8062V73.4187H43.9656V69.7374H42.124V55.0103H43.9646V51.3281H45.8052V55.0093L47.6479 55.0051ZM40.2844 55.0051V69.7374H38.4375V55.0103L40.2844 55.0051ZM42.125 71.5676V73.4083H36.6042V71.5781L42.125 71.5676ZM42.125 53.1593H36.6042V51.3281H42.125V53.1593ZM36.6042 54.9999V69.7374H34.7615V73.4187H32.9167V69.7374H31.0792V55.0103H32.9167V51.3281H34.7573V55.0093L36.6042 54.9999ZM31.0833 53.1593H25.5625V51.3281H31.0833V53.1593ZM27.3958 55.0103H29.2385V69.7374H27.3958V55.0103ZM25.5552 71.5728H31.076V73.4135H25.5552V71.5728ZM66.0542 77.0937H23.7156V75.2593H66.0552L66.0542 77.0937ZM58.6906 73.4124V71.5781H64.2115V73.4187L58.6906 73.4124ZM62.3719 69.7312H60.5333V55.0103H62.374L62.3719 69.7312ZM64.2125 53.1687H58.6917V51.3281H64.2125V53.1687ZM66.0531 49.4874H23.7156V47.2999L43.2615 37.527H43.9646V43.9697H45.8052V37.5218H46.5083L66.0542 47.2947L66.0531 49.4874Z" fill="#F5821F"/>
<path d="M60.5331 45.8063H29.2383V47.6469H60.5331V45.8063Z" fill="#F5821F"/>
<path d="M68.8164 21.875C66.8139 21.875 64.8563 22.4688 63.1913 23.5814C61.5262 24.6939 60.2285 26.2752 59.4621 28.1253C58.6958 29.9754 58.4953 32.0112 58.886 33.9753C59.2766 35.9393 60.2409 37.7434 61.657 39.1595C63.073 40.5755 64.8771 41.5398 66.8411 41.9305C68.8052 42.3211 70.841 42.1206 72.6911 41.3543C74.5412 40.5879 76.1225 39.2902 77.235 37.6251C78.3476 35.9601 78.9414 34.0025 78.9414 32C78.9384 29.3156 77.8707 26.742 75.9725 24.8439C74.0744 22.9457 71.5008 21.878 68.8164 21.875ZM68.8164 40.2833C67.1781 40.2833 65.5766 39.7975 64.2144 38.8873C62.8522 37.9772 61.7906 36.6835 61.1636 35.1699C60.5367 33.6563 60.3726 31.9908 60.6922 30.384C61.0119 28.7772 61.8008 27.3012 62.9592 26.1428C64.1177 24.9844 65.5936 24.1954 67.2004 23.8758C68.8072 23.5562 70.4727 23.7203 71.9863 24.3472C73.4999 24.9741 74.7936 26.0358 75.7037 27.398C76.6139 28.7602 77.0997 30.3617 77.0997 32C77.097 34.196 76.2234 36.3013 74.6706 37.8542C73.1177 39.407 71.0124 40.2806 68.8164 40.2833Z" fill="#F5821F"/>
<path d="M56.8509 31.0791H55.0103V32.9197H56.8509V31.0791Z" fill="#F5821F"/>
<path d="M73.4186 57.7718C73.4177 58.504 73.1265 59.2059 72.6088 59.7236C72.0911 60.2412 71.3892 60.5325 70.6571 60.5333H69.7373V62.3739H70.6581C71.8779 62.372 73.0471 61.8864 73.9094 61.0237C74.7717 60.161 75.2568 58.9916 75.2581 57.7718V43.0447H73.4186V57.7718Z" fill="#F5821F"/>
<path d="M67.8958 60.5333H66.0552V62.374H67.8958V60.5333Z" fill="#F5821F"/>
</svg>
