<svg width="101" height="100" viewBox="0 0 101 100" fill="none" xmlns="http://www.w3.org/2000/svg">
<g opacity="0.07">
<path d="M50.5 100C78.1142 100 100.5 77.6142 100.5 50C100.5 22.3858 78.1142 0 50.5 0C22.8858 0 0.5 22.3858 0.5 50C0.5 77.6142 22.8858 100 50.5 100Z" fill="#FF9629"/>
<path d="M50.5002 99.4791C77.8268 99.4791 99.9793 77.3266 99.9793 50C99.9793 22.6734 77.8268 0.520813 50.5002 0.520813C23.1736 0.520813 1.021 22.6734 1.021 50C1.021 77.3266 23.1736 99.4791 50.5002 99.4791Z" fill="#FF9629" stroke="#707070" stroke-width="0.416667"/>
</g>
<path d="M79.4417 31.0792V27.3958C79.4397 25.9322 78.8575 24.5291 77.8225 23.4941C76.7876 22.4592 75.3845 21.8769 73.9208 21.875H37.1021C35.6385 21.8769 34.2353 22.4592 33.2004 23.4941C32.1655 24.5291 31.5832 25.9322 31.5813 27.3958V30.0938L30.7542 29.2604L24.2437 35.774L26.7229 38.2531C26.3948 38.9077 26.1163 39.586 25.8896 40.2823H22.375V49.4865H25.8844C26.111 50.1827 26.3896 50.861 26.7177 51.5156L24.2385 53.9948L30.7469 60.5031L31.574 59.6698V69.7302H22.375V73.4115C22.3769 74.8751 22.9592 76.2782 23.9941 77.3131C25.0291 78.3481 26.4322 78.9304 27.8958 78.9323H64.7146C66.1782 78.9304 67.5813 78.3481 68.6163 77.3131C69.6512 76.2782 70.2335 74.8751 70.2354 73.4115V63.125C70.6352 62.9861 70.9974 62.7566 71.2937 62.4545C71.59 62.1524 71.8124 61.7858 71.9436 61.3834C72.0747 60.9811 72.111 60.5538 72.0496 60.1351C71.9882 59.7164 71.8307 59.3176 71.5896 58.9698L76.3469 49.4552C76.4576 49.4729 76.5692 49.484 76.6812 49.4885C77.3216 49.4919 77.9435 49.2736 78.4413 48.8708C78.9391 48.4679 79.2823 47.9053 79.4126 47.2783C79.5429 46.6513 79.4524 45.9986 79.1563 45.4307C78.8603 44.8629 78.377 44.4149 77.7883 44.1627C77.1996 43.9106 76.5419 43.8698 75.9266 44.0473C75.3113 44.2248 74.7763 44.6096 74.4124 45.1365C74.0484 45.6634 73.8779 46.3 73.9298 46.9383C73.9816 47.5766 74.2526 48.1773 74.6969 48.6385L70.2385 57.5552V31.0792H79.4417ZM77.6 27.3958V29.2385H70.2375V27.3958C70.2375 26.4194 70.6254 25.4829 71.3159 24.7924C72.0063 24.102 72.9428 23.7141 73.9193 23.7141C74.8957 23.7141 75.8322 24.102 76.5227 24.7924C77.2131 25.4829 77.601 26.4194 77.601 27.3958H77.6ZM26.8469 53.9969L29.0031 51.8396L28.6573 51.2302C28.1383 50.3141 27.7349 49.3372 27.4562 48.3219L27.2708 47.6469H24.2156V42.126H27.2708L27.4573 41.451C27.7355 40.4354 28.1386 39.4581 28.6573 38.5417L29.0031 37.9323L26.8469 35.775L30.7521 31.8698L32.9083 34.0271L33.5177 33.6802C34.4345 33.162 35.4117 32.7586 36.4271 32.4792L37.1021 32.2917V29.2385H42.6229V32.2917L43.2979 32.4781C44.3133 32.7575 45.2905 33.1609 46.2073 33.6792L46.8167 34.026L48.9729 31.8687L52.8781 35.774L50.7219 37.9312L51.0677 38.5406C51.5874 39.4566 51.9916 40.4335 52.2708 41.449L52.4573 42.125H55.5104V47.6458H52.4573L52.2708 48.3208C51.9922 49.3362 51.5888 50.3131 51.0698 51.2292L50.724 51.8385L52.8802 53.9958L48.975 57.901L46.8187 55.7437L46.2094 56.0906C45.2922 56.609 44.3147 57.0123 43.299 57.2917L42.624 57.4792V60.5312H37.1031V57.4792L36.4271 57.2917C35.4128 57.0127 34.4368 56.61 33.5208 56.0927L32.9115 55.7458L30.7552 57.9031L26.8469 53.9969ZM27.8958 77.1C26.9198 77.0989 25.9841 76.7107 25.294 76.0206C24.6039 75.3304 24.2157 74.3947 24.2146 73.4187V71.5781H59.1917V73.4187C59.1914 74.7782 59.6945 76.0897 60.6042 77.1H27.8958ZM64.7125 77.1C63.7365 77.0989 62.8008 76.7107 62.1107 76.0206C61.4206 75.3304 61.0324 74.3947 61.0312 73.4187V69.7375H33.4167V58.1125C34.0125 58.4041 34.6275 58.655 35.2573 58.8635V62.374H44.4615V58.8646C45.1579 58.6375 45.8365 58.359 46.4917 58.0312L48.9708 60.5104L55.4792 54.0021L53 51.5229C53.3281 50.8683 53.6067 50.19 53.8333 49.4937H57.3427V40.2833H53.8417C53.615 39.5871 53.3364 38.9088 53.0083 38.2542L55.4875 35.775L48.975 29.2708L46.4958 31.75C45.8407 31.4223 45.1621 31.1437 44.4656 30.9167V27.3958H35.2615V30.9073C34.6317 31.1158 34.0167 31.3667 33.4208 31.6583V27.3958C33.4219 26.4198 33.8101 25.4841 34.5003 24.794C35.1904 24.1039 36.1261 23.7157 37.1021 23.7146H69.8104C68.8995 24.7243 68.3955 26.036 68.3958 27.3958V57.9406C68.0369 58.0668 67.7081 58.2662 67.4302 58.526L62.7313 55.8417C62.8214 55.5729 62.8692 55.2918 62.8729 55.0083C62.8532 54.2894 62.5537 53.6065 62.0381 53.1049C61.5226 52.6033 60.8317 52.3227 60.1125 52.3227C59.3932 52.3227 58.7024 52.6033 58.1869 53.1049C57.6713 53.6065 57.3718 54.2894 57.3521 55.0083C57.354 55.4183 57.4487 55.8225 57.6292 56.1906L52.0917 61.7292C51.7225 61.5514 51.3181 61.4588 50.9083 61.4583C50.3622 61.4583 49.8283 61.6203 49.3741 61.9237C48.92 62.2272 48.5661 62.6584 48.3571 63.163C48.1481 63.6676 48.0934 64.2229 48.1999 64.7585C48.3065 65.2942 48.5695 65.7862 48.9557 66.1724C49.3419 66.5586 49.8339 66.8216 50.3696 66.9282C50.9053 67.0347 51.4605 66.9801 51.9651 66.771C52.4697 66.562 52.901 66.2081 53.2044 65.754C53.5078 65.2999 53.6698 64.766 53.6698 64.2198C53.6679 63.8098 53.5731 63.4056 53.3927 63.0375L58.9292 57.5C59.3529 57.7075 59.8235 57.8007 60.2943 57.7704C60.7652 57.74 61.2199 57.5872 61.6135 57.3271L66.5927 60.1719C66.5726 60.2928 66.5604 60.415 66.5563 60.5375C66.5588 61.1058 66.737 61.6594 67.0663 62.1226C67.3956 62.5857 67.8599 62.9359 68.3958 63.125V73.4187C68.3947 74.3947 68.0065 75.3304 67.3164 76.0206C66.6263 76.7107 65.6906 77.0989 64.7146 77.1H64.7125ZM59.1917 55.0094C59.1917 54.8272 59.2457 54.6492 59.3469 54.4978C59.448 54.3464 59.5919 54.2283 59.7601 54.1586C59.9284 54.0889 60.1135 54.0707 60.2921 54.1062C60.4708 54.1418 60.6348 54.2295 60.7636 54.3582C60.8924 54.487 60.9801 54.6511 61.0156 54.8297C61.0512 55.0084 61.0329 55.1935 60.9632 55.3618C60.8935 55.53 60.7755 55.6738 60.6241 55.775C60.4727 55.8762 60.2946 55.9302 60.1125 55.9302C59.8685 55.9302 59.6344 55.8333 59.4617 55.6609C59.2891 55.4884 59.1919 55.2545 59.1917 55.0104V55.0094ZM51.8281 64.2135C51.8281 64.3957 51.7741 64.5737 51.6729 64.7251C51.5718 64.8766 51.4279 64.9946 51.2597 65.0643C51.0914 65.134 50.9063 65.1522 50.7276 65.1167C50.549 65.0811 50.3849 64.9934 50.2562 64.8647C50.1274 64.7359 50.0397 64.5718 50.0042 64.3932C49.9686 64.2146 49.9869 64.0294 50.0566 63.8612C50.1262 63.6929 50.2443 63.5491 50.3957 63.4479C50.5471 63.3467 50.7252 63.2927 50.9073 63.2927C51.1516 63.293 51.3858 63.3902 51.5585 63.5631C51.7311 63.7359 51.8281 63.9703 51.8281 64.2146V64.2135ZM69.3167 61.4583C69.1345 61.4583 68.9565 61.4043 68.8051 61.3031C68.6536 61.202 68.5356 61.0581 68.4659 60.8899C68.3962 60.7216 68.378 60.5365 68.4135 60.3579C68.4491 60.1792 68.5368 60.0152 68.6655 59.8864C68.7943 59.7576 68.9584 59.6699 69.137 59.6344C69.3156 59.5988 69.5008 59.6171 69.6691 59.6868C69.8373 59.7565 69.9811 59.8745 70.0823 60.0259C70.1835 60.1773 70.2375 60.3554 70.2375 60.5375C70.2372 60.7816 70.1401 61.0157 69.9675 61.1883C69.7949 61.361 69.5608 61.4581 69.3167 61.4583ZM76.6802 45.8115C76.8623 45.8115 77.0404 45.8655 77.1918 45.9666C77.3432 46.0678 77.4613 46.2116 77.5309 46.3799C77.6006 46.5482 77.6189 46.7333 77.5833 46.9119C77.5478 47.0906 77.4601 47.2546 77.3313 47.3834C77.2026 47.5122 77.0385 47.5999 76.8599 47.6354C76.6812 47.671 76.4961 47.6527 76.3278 47.583C76.1596 47.5133 76.0157 47.3953 75.9146 47.2439C75.8134 47.0924 75.7594 46.9144 75.7594 46.7323C75.7587 46.6109 75.782 46.4906 75.828 46.3783C75.8739 46.266 75.9417 46.1639 76.0272 46.0778C76.1128 45.9917 76.2146 45.9234 76.3266 45.8768C76.4387 45.8302 76.5588 45.8062 76.6802 45.8062V45.8115Z" fill="#F5821F"/>
<path d="M50.9085 44.8823C50.9085 42.6985 50.261 40.5637 49.0477 38.7479C47.8344 36.9321 46.1099 35.5169 44.0923 34.6811C42.0747 33.8454 39.8546 33.6268 37.7127 34.0528C35.5709 34.4788 33.6034 35.5305 32.0592 37.0747C30.515 38.6189 29.4634 40.5863 29.0374 42.7282C28.6113 44.8701 28.83 47.0902 29.6657 49.1078C30.5014 51.1254 31.9167 52.8498 33.7324 54.0631C35.5482 55.2764 37.683 55.924 39.8669 55.924C42.794 55.9198 45.6001 54.7552 47.6699 52.6854C49.7398 50.6156 50.9044 47.8095 50.9085 44.8823ZM30.6596 44.8823C30.6602 43.0619 31.2006 41.2825 32.2126 39.7692C33.2245 38.2559 34.6624 37.0766 36.3446 36.3806C38.0267 35.6846 39.8775 35.503 41.6628 35.8588C43.4482 36.2146 45.0879 37.0919 46.3746 38.3797C47.6614 39.6675 48.5374 41.3079 48.8918 43.0935C49.2462 44.8791 49.0632 46.7297 48.3658 48.4113C47.6684 50.0929 46.488 51.5299 44.9739 52.5407C43.4598 53.5514 41.68 54.0904 39.8596 54.0896C37.4193 54.086 35.0801 53.1146 33.3552 51.3885C31.6303 49.6624 30.6605 47.3226 30.6585 44.8823H30.6596Z" fill="#F5821F"/>
<path d="M62.8738 25.5563H61.0332V27.3969H62.8738V25.5563Z" fill="#F5821F"/>
<path d="M59.3503 26.2558L58.0488 27.5573L59.3503 28.8588L60.6519 27.5573L59.3503 26.2558Z" fill="#F5821F"/>
<path d="M59.1917 29.2385H57.3511V31.0792H59.1917V29.2385Z" fill="#F5821F"/>
<path d="M59.3494 31.46L58.0479 32.7615L59.3494 34.063L60.6509 32.7615L59.3494 31.46Z" fill="#F5821F"/>
<path d="M62.8738 32.9198H61.0332V34.7604H62.8738V32.9198Z" fill="#F5821F"/>
<path d="M64.5569 31.462L63.2554 32.7635L64.5569 34.0651L65.8584 32.7635L64.5569 31.462Z" fill="#F5821F"/>
<path d="M66.555 29.2385H64.7144V31.0792H66.555V29.2385Z" fill="#F5821F"/>
<path d="M64.5559 26.2548L63.2544 27.5563L64.5559 28.8578L65.8574 27.5563L64.5559 26.2548Z" fill="#F5821F"/>
<path d="M62.8738 36.6021H61.0332V46.7271H62.8738V36.6021Z" fill="#F5821F"/>
<path d="M62.8738 48.5677H61.0332V50.4083H62.8738V48.5677Z" fill="#F5821F"/>
<path d="M42.6975 50.8135L36.2883 41.6552V50.8135H34.6434V46.6844H32.7915V45.1365H34.6434V44.1042H32.7915V42.5562H34.6434V39.1104H36.3392L42.7311 48.251V39.1104H44.376V42.5562H46.7248V44.1042H44.376V45.1365H46.7248V46.6844H44.376V50.8125L42.6975 50.8135Z" fill="#F5821F" stroke="black" stroke-width="0.416667"/>
</svg>
